<?xml version="1.0" encoding="utf-8"?>
<!-- Generator: Adobe Illustrator 24.2.0, SVG Export Plug-In . SVG Version: 6.00 Build 0)  -->
<svg version="1.1" id="Layer_1" xmlns="http://www.w3.org/2000/svg" xmlns:xlink="http://www.w3.org/1999/xlink" x="0px" y="0px"
	 viewBox="0 0 542.3 280.9" style="enable-background:new 0 0 542.3 280.9;" xml:space="preserve">
<style type="text/css">
	.st0{fill:#FFFFFF;}
</style>
<path class="st0" d="M117.6,160.4c-27.7-8.8-120,82-48,107S145.3,169.2,117.6,160.4"/>
<path class="st0" d="M362.3,105.7c0,33.1-26.9,60-60,60s-60-26.9-60-60s26.9-60,60-60S362.3,72.6,362.3,105.7"/>
<path class="st0" d="M403.3,165.6c-46.9,0-39.8-119.7,12.9-119.7c20.1,0,23.3,24.1,23.3,24.1s8.7-16.5,24.5-16.5
	s20.8,17.9,20.8,17.9S496,46,517.1,46c52.4,0,14.3,119.7-33.9,119.7c-31.7,0-31.1-47.7-31.1-47.7S434.2,165.6,403.3,165.6"/>
<path class="st0" d="M120,105.7c0,33.1-26.9,60-60,60s-60-26.9-60-60s26.9-60,60-60S120,72.6,120,105.7"/>
<path class="st0" d="M183.3,0.5c36,10.1-24.1,114.6-24.1,114.6s76.3-23.1,76.3,15.6c0,23.1-25.7,34.9-51.5,34.9
	C85.8,165.6,145.8-10.1,183.3,0.5"/>
</svg>
